<svg xmlns="http://www.w3.org/2000/svg" viewBox="0 0 1200 630">
  <rect width="1200" height="630" fill="#fbf6ee"/>
  <rect x="26" y="26" width="1148" height="578" rx="30" fill="none" stroke="#d46351" stroke-width="3"/>

  <path d="M76 94c124-52 191 49 318-3 80-32 117-48 168-12 49 34 35 75-2 71-44-4-25-67 42-75 84-9 130 56 216 33" fill="none" stroke="#d46351" stroke-width="4" stroke-linecap="round"/>

  <text x="102" y="174" fill="#7d802a" font-family="Arial, sans-serif" font-size="20" font-weight="700" letter-spacing="8">SAVE THE DATE</text>
  <text x="92" y="310" fill="#44472f" font-family="Georgia, serif" font-size="116" font-style="italic">Emma</text>
  <text x="450" y="347" fill="#d46351" font-family="Georgia, serif" font-size="86" font-style="italic">&amp;</text>
  <text x="148" y="441" fill="#44472f" font-family="Georgia, serif" font-size="116" font-style="italic">Eric</text>

  <line x1="104" y1="490" x2="556" y2="490" stroke="#c9bdac" stroke-width="2"/>
  <text x="104" y="534" fill="#44472f" font-family="Arial, sans-serif" font-size="25" font-weight="700" letter-spacing="3">SEPTEMBER 25, 2027</text>
  <text x="104" y="570" fill="#6f705d" font-family="Arial, sans-serif" font-size="18" letter-spacing="2">BOTANICA · WICHITA, KANSAS</text>

  <g transform="translate(655 48)">
    <path d="M72 546C93 394 170 277 278 174" fill="none" stroke="#6e982c" stroke-width="17" stroke-linecap="round"/>
    <path d="M193 554C208 398 271 269 358 140" fill="none" stroke="#a8c744" stroke-width="15" stroke-linecap="round"/>
    <path d="M324 550C344 419 403 330 483 246" fill="none" stroke="#6e982c" stroke-width="16" stroke-linecap="round"/>

    <path d="M93 515C24 414 30 328 50 268c59 74 83 156 43 247Z" fill="#527f13"/>
    <path d="M154 493c-24-125 19-225 89-300 2 124-26 222-89 300Z" fill="#a8c744"/>
    <path d="M244 537c17-125 79-214 178-275-34 119-92 209-178 275Z" fill="#c2d94b"/>
    <path d="M344 541c24-131 86-222 180-276-30 126-88 219-180 276Z" fill="#6e982c"/>

    <g>
      <path d="M245 193c-49-58-43-129 16-169 38 50 42 111-16 169Z" fill="#f27b76"/>
      <path d="M290 188c-25-69 5-128 67-146 21 63 4 116-67 146Z" fill="#ef5351"/>
      <path d="M257 194c8-80 53-136 104-149 7 77-26 131-104 149Z" fill="#f8b942" fill-opacity=".78"/>
    </g>

    <g>
      <path d="M90 365c-39-52-31-110 17-139 30 44 31 95-17 139Z" fill="#ef5351"/>
      <path d="M130 364c-13-61 16-107 67-119 12 55-9 97-67 119Z" fill="#f8b942"/>
      <path d="M102 368c3-62 38-105 80-116 7 58-18 101-80 116Z" fill="#f27b76"/>
    </g>

    <g>
      <circle cx="387" cy="264" r="53" fill="#f8b942"/>
      <circle cx="430" cy="282" r="48" fill="#f5a034"/>
      <circle cx="409" cy="235" r="46" fill="#ffd166"/>
      <circle cx="408" cy="270" r="16" fill="#d46351"/>
    </g>

    <g>
      <path d="M425 410c-29-59-9-111 39-134 26 49 17 96-39 134Z" fill="#ef5351"/>
      <path d="M465 411c-2-62 32-103 81-101 3 54-25 92-81 101Z" fill="#f27b76"/>
      <path d="M445 411c-7-62 18-105 65-120 16 53-2 95-65 120Z" fill="#f8b942" fill-opacity=".72"/>
    </g>
  </g>
</svg>
